<svg width="119" height="112" viewBox="0 0 119 112" fill="none" xmlns="http://www.w3.org/2000/svg">
<rect width="119" height="112" fill="#1E1E1E"/>
<g id="Desktop - 5">
<rect width="1440" height="1024" transform="translate(-123 -864)" fill="white"/>
<g id="Frame 2">
<rect width="385" height="1024" transform="translate(-123 -864)" fill="#22668D"/>
<g id="AddButton">
<ellipse id="Ellipse 1" cx="59.5" cy="55.5596" rx="59.5" ry="55.5596" fill="white"/>
<g id="Group 1">
<path id="Vector" d="M77.8721 53.0476H62.8V37.9756C62.8 37.3094 62.5354 36.6705 62.0643 36.1994C61.5932 35.7283 60.9543 35.4636 60.288 35.4636C59.6218 35.4636 58.9829 35.7283 58.5118 36.1994C58.0407 36.6705 57.776 37.3094 57.776 37.9756V53.0476H42.704C42.0378 53.0476 41.3989 53.3123 40.9278 53.7834C40.4567 54.2545 40.192 54.8934 40.192 55.5596C40.192 56.2259 40.4567 56.8648 40.9278 57.3359C41.3989 57.807 42.0378 58.0717 42.704 58.0717H57.776V73.1437C57.776 73.8099 58.0407 74.4488 58.5118 74.9199C58.9829 75.391 59.6218 75.6557 60.288 75.6557C60.9543 75.6557 61.5932 75.391 62.0643 74.9199C62.5354 74.4488 62.8 73.8099 62.8 73.1437V58.0717H77.8721C78.5383 58.0717 79.1772 57.807 79.6483 57.3359C80.1194 56.8648 80.3841 56.2259 80.3841 55.5596C80.3841 54.8934 80.1194 54.2545 79.6483 53.7834C79.1772 53.3123 78.5383 53.0476 77.8721 53.0476Z" fill="#7089A7"/>
</g>
</g>
</g>
<g id="Frame 16">
<rect width="385" height="1024" transform="translate(-123 -864)" fill="#22668D"/>
<g id="AddButton_2">
<ellipse id="Ellipse 1_2" cx="59.5" cy="55.5596" rx="59.5" ry="55.5596" fill="white"/>
<g id="Group 1_2">
<path id="Vector_2" d="M77.8721 53.0476H62.8V37.9756C62.8 37.3094 62.5354 36.6705 62.0643 36.1994C61.5932 35.7283 60.9543 35.4636 60.288 35.4636C59.6218 35.4636 58.9829 35.7283 58.5118 36.1994C58.0407 36.6705 57.776 37.3094 57.776 37.9756V53.0476H42.704C42.0378 53.0476 41.3989 53.3123 40.9278 53.7834C40.4567 54.2545 40.192 54.8934 40.192 55.5596C40.192 56.2259 40.4567 56.8648 40.9278 57.3359C41.3989 57.807 42.0378 58.0717 42.704 58.0717H57.776V73.1437C57.776 73.8099 58.0407 74.4488 58.5118 74.9199C58.9829 75.391 59.6218 75.6557 60.288 75.6557C60.9543 75.6557 61.5932 75.391 62.0643 74.9199C62.5354 74.4488 62.8 73.8099 62.8 73.1437V58.0717H77.8721C78.5383 58.0717 79.1772 57.807 79.6483 57.3359C80.1194 56.8648 80.3841 56.2259 80.3841 55.5596C80.3841 54.8934 80.1194 54.2545 79.6483 53.7834C79.1772 53.3123 78.5383 53.0476 77.8721 53.0476Z" fill="#7089A7"/>
</g>
</g>
</g>
</g>
</svg>
